#!OML:ASF H:\Male1\Project 1\Capture day 1\Session 1\Male1.ASF
:FULLY-SPECIFIED
:DEGREES
206
root 16.664 15.4848 -0.607331 180.033 -75.259 -182.868
lowerback 1.57399 0.869185 -0.909992
upperback 1.27499 1.12528 -1.74241
thorax 0.440677 0.55198 -1.28697
lowerneck -5.62893 5.60308 6.70134
upperneck 13.0711 7.27288 -4.07879
head 5.25536 3.57487 -1.89452
rclavicle -2.06115e-014 -4.77083e-015
rhumerus -32.8949 11.3949 -87.4473
rradius 35.9915
rwrist -19.4137
rhand -15.2067 1.54955
rfingers 7.12502
rthumb 10.9654 -28.1441
lclavicle -2.06115e-014 -4.77083e-015
lhumerus 42.7166 17.491 39.3518
lradius 60.6139
lwrist -0.883477
lhand -44.6906 6.50305
lfingers 7.12502
lthumb -17.4859 35.7366
rfemur -1.19053 18.9963 22.7624
rtibia 21.6052
rfoot -30.3623 -30.8665
rtoes -14.9199
lfemur 3.74119 -16.467 -23.8288
ltibia 18.1375
lfoot -29.6542 32.849
ltoes 9.04312
207
root 16.6659 15.4854 -0.604724 180.315 -75.377 -183.131
lowerback 1.60456 0.836955 -0.928847
upperback 1.26963 1.08097 -1.76525
thorax 0.417456 0.529619 -1.29986
lowerneck -5.71727 5.59916 6.59718
upperneck 13.2529 7.25387 -3.92641
head 5.31636 3.56762 -1.82803
rclavicle 3.08924e-014 1.59028e-014
rhumerus -32.8357 11.3237 -87.4077
rradius 35.8112
rwrist -19.2885
rhand -15.1588 1.58068
rfingers 7.12502
rthumb 11.0116 -28.1105
lclavicle 3.08924e-014 1.59028e-014
lhumerus 43.3137 17.9349 40.6121
lradius 60.8771
lwrist -1.26964
lhand -47.283 6.53548
lfingers 7.12502
lthumb -19.9793 35.5284
rfemur -1.22907 18.9681 22.6798
rtibia 21.6428
rfoot -30.4946 -30.8895
rtoes -14.7739
lfemur 3.71014 -16.5136 -23.8877
ltibia 18.0828
lfoot -29.5248 32.8473
ltoes 8.86776
208
root 16.667 15.4855 -0.60201 180.604 -75.474 -183.408
lowerback 1.62695 0.813122 -0.942069
upperback 1.26529 1.04812 -1.78823
thorax 0.400156 0.513031 -1.316
lowerneck -5.79317 5.59621 6.48359
upperneck 13.4138 7.24104 -3.79875
head 5.36965 3.56167 -1.76776
rclavicle -5.42993e-014 3.97569e-016
rhumerus -32.768 11.2507 -87.3641
rradius 35.6385
rwrist -19.1621
rhand -15.1096 1.61119
rfingers 7.12502
rthumb 11.0591 -28.0775
lclavicle -5.42993e-014 3.97569e-016
lhumerus 43.7794 18.166 41.4108
lradius 60.9961
lwrist -1.3021
lhand -47.7242 7.00646
lfingers 7.12502
lthumb -20.4033 35.9545
rfemur -1.26912 18.9347 22.5933
rtibia 21.697
rfoot -30.6096 -30.9017
rtoes -14.6704
lfemur 3.70164 -16.5526 -23.9562
ltibia 18.0179
lfoot -29.4341 32.8246
ltoes 8.80489
209
root 16.6676 15.4854 -0.599556 180.86 -75.5489 -183.66
lowerback 1.63813 0.802659 -0.945906
upperback 1.26076 1.03357 -1.80639
thorax 0.389292 0.505693 -1.33249
lowerneck -5.82297 5.57989 6.3661
upperneck 13.5364 7.21847 -3.71435
head 5.40413 3.54864 -1.72267
rclavicle 9.33667e-015 -7.15625e-015
rhumerus -32.7134 11.1755 -87.3144
rradius 35.4986
rwrist -19.065
rhand -15.0732 1.6296
rfingers 7.12502
rthumb 11.0941 -28.0572
lclavicle 9.33667e-015 -7.15625e-015
lhumerus 44.0802 18.1829 41.707
lradius 60.9561
lwrist -0.856296
lhand -46.0089 7.66992
lfingers 7.12502
lthumb -18.7542 36.7859
rfemur -1.30495 18.9041 22.5163
rtibia 21.7516
rfoot -30.6968 -30.9134
rtoes -14.6167
lfemur 3.70318 -16.581 -24.0196
ltibia 17.9612
lfoot -29.3878 32.7769
ltoes 8.85337
210
root 16.6681 15.4849 -0.597582 181.04 -75.6013 -183.841
lowerback 1.63794 0.80706 -0.935609
upperback 1.25672 1.03947 -1.81476
thorax 0.385704 0.508736 -1.34695
lowerneck -5.80429 5.55579 6.26606
upperneck 13.6113 7.19276 -3.68168
head 5.41784 3.53234 -1.69847
rclavicle -6.76489e-015 -4.37326e-015
rhumerus -32.6811 11.1035 -87.2606
rradius 35.4042
rwrist -19.0115
rhand -15.0624 1.63731
rfingers 7.12502
rthumb 11.1046 -28.0489
lclavicle -6.76489e-015 -4.37326e-015
lhumerus 44.223 18.0224 41.5329
lradius 60.7646
lwrist 0.103137
lhand -42.3438 8.3773
lfingers 7.12502
lthumb -15.2264 37.797
rfemur -1.3291 18.8849 22.463
rtibia 21.7946
rfoot -30.7595 -30.9255
rtoes -14.586
lfemur 3.70717 -16.5954 -24.0644
ltibia 17.9254
lfoot -29.3807 32.7067
ltoes 8.9826
211
root 16.6686 15.4844 -0.596158 181.117 -75.6341 -183.924
lowerback 1.62735 0.822877 -0.909366
upperback 1.254 1.0613 -1.80925
thorax 0.38958 0.519925 -1.35614
lowerneck -5.75504 5.52731 6.19332
upperneck 13.6495 7.166 -3.696
head 5.41759 3.51442 -1.69447
rclavicle 1.0051e-014 -1.59028e-014
rhumerus -32.6701 11.0529 -87.2073
rradius 35.3586
rwrist -19.0053
rhand -15.0756 1.62707
rfingers 7.12502
rthumb 11.0918 -28.0598
lclavicle 1.0051e-014 -1.59028e-014
lhumerus 44.234 17.7396 40.9691
lradius 60.4474
lwrist 1.49998
lhand -37.1235 9.20302
lfingers 7.12502
lthumb -10.1938 38.936
rfemur -1.3376 18.8815 22.4418
rtibia 21.8197
rfoot -30.7988 -30.9436
rtoes -14.5765
lfemur 3.70941 -16.5974 -24.0833
ltibia 17.9142
lfoot -29.3949 32.6315
ltoes 9.13124
212
root 16.6689 15.4839 -0.595199 181.118 -75.6548 -183.93
lowerback 1.611 0.842027 -0.877348
upperback 1.24931 1.088 -1.78909
thorax 0.394588 0.533651 -1.35352
lowerneck -5.69846 5.50218 6.14597
upperneck 13.6741 7.14483 -3.73553
head 5.41403 3.49908 -1.70224
rclavicle 3.55203e-014 -2.38542e-015
rhumerus -32.6746 11.0419 -87.1601
rradius 35.3507
rwrist -19.0392
rhand -15.0962 1.59816
rfingers 7.12502
rthumb 11.0719 -28.0898
lclavicle 3.55203e-014 -2.38542e-015
lhumerus 44.1395 17.3879 40.1189
lradius 60.0447
lwrist 3.18427
lhand -30.6568 10.1504
lfingers 7.12502
lthumb -3.95169 40.0935
rfemur -1.33272 18.8887 22.444
rtibia 21.8255
rfoot -30.812 -30.9711
rtoes -14.5898
lfemur 3.70528 -16.5919 -24.0827
ltibia 17.9249
lfoot -29.4044 32.5745
ltoes 9.22556
213
root 16.6691 15.4837 -0.594541 181.075 -75.6647 -183.89
lowerback 1.59232 0.857981 -0.849276
upperback 1.24154 1.11058 -1.75605
thorax 0.397352 0.545331 -1.33541
lowerneck -5.65858 5.48301 6.11442
upperneck 13.7077 7.12968 -3.77754
head 5.41714 3.48712 -1.71229
rclavicle 3.49737e-014 -5.1684e-015
rhumerus -32.6831 11.0736 -87.1231
rradius 35.3669
rwrist -19.0926
rhand -15.1103 1.56567
rfingers 7.12502
rthumb 11.0584 -28.123
lclavicle 3.49737e-014 -5.1684e-015
lhumerus 43.9542 17.0016 39.0729
lradius 59.6136
lwrist 5.00571
lhand -23.4428 11.3443
lfingers 7.12502
lthumb 3.01545 41.3027
rfemur -1.32157 18.8971 22.4571
rtibia 21.8141
rfoot -30.8 -30.9974
rtoes -14.5991
lfemur 3.69215 -16.5839 -24.0706
ltibia 17.9511
lfoot -29.4089 32.5473
ltoes 9.24313
214
root 16.669 15.4838 -0.594016 181.001 -75.6619 -183.813
lowerback 1.57605 0.868845 -0.824979
upperback 1.23002 1.12631 -1.71448
thorax 0.394549 0.553592 -1.30643
lowerneck -5.635 5.46897 6.10204
upperneck 13.7462 7.11878 -3.81954
head 5.42547 3.47807 -1.72456
rclavicle -2.49413e-014 2.34566e-014
rhumerus -32.6898 11.1315 -87.099
rradius 35.397
rwrist -19.1382
rhand -15.116 1.54379
rfingers 7.12502
rthumb 11.0529 -28.1452
lclavicle -2.49413e-014 2.34566e-014
lhumerus 43.668 16.5698 37.8808
lradius 59.2212
lwrist 6.82088
lhand -16.6207 12.6996
lfingers 7.12502
lthumb 9.60128 42.4608
rfemur -1.31052 18.9011 22.4757
rtibia 21.7916
rfoot -30.7752 -31.0062
rtoes -14.577
lfemur 3.67271 -16.5751 -24.0496
ltibia 17.9832
lfoot -29.4161 32.5467
ltoes 9.20455
215
root 16.6687 15.4844 -0.593456 180.888 -75.6474 -183.694
lowerback 1.56441 0.87572 -0.796247
upperback 1.21751 1.13671 -1.66955
thorax 0.388052 0.559214 -1.27652
lowerneck -5.60948 5.45217 6.1077
upperneck 13.7755 7.1025 -3.8636
head 5.43111 3.46731 -1.74088
rclavicle -2.04593e-014 1.35174e-014
rhumerus -32.6902 11.1826 -87.0873
rradius 35.4326
rwrist -19.153
rhand -15.1221 1.53849
rfingers 7.12502
rthumb 11.047 -28.1508
lclavicle -2.04593e-014 1.35174e-014
lhumerus 43.2707 16.0622 36.5917
lradius 58.9359
lwrist 8.44355
lhand -11.0627 14.0765
lfingers 7.12502
lthumb 14.9601 43.5162
rfemur -1.30298 18.9019 22.5023
rtibia 21.7666
rfoot -30.7465 -30.9977
rtoes -14.5323
lfemur 3.6531 -16.5625 -24.0176
ltibia 18.0105
lfoot -29.419 32.5643
ltoes 9.14398
